<?xml version="1.0" encoding="UTF-8"?>
<svg version="1.1" xmlns="http://www.w3.org/2000/svg" width="64" height="64">
<path d="M0 0 C2.31 0.66 4.62 1.32 7 2 C7 2.66 7 3.32 7 4 C7.65484375 4.10957031 8.3096875 4.21914062 8.984375 4.33203125 C14.2062869 5.23922781 19.39653655 6.2506402 24.5625 7.4375 C25.55378906 7.66308594 26.54507813 7.88867188 27.56640625 8.12109375 C30 9 30 9 32 12 C31.68988742 21.64997387 27.66155524 31.76582552 25 41 C24.34 41 23.68 41 23 41 C22.71125 42.093125 22.4225 43.18625 22.125 44.3125 C21 48 21 48 19 51 C18.67 51.99 18.34 52.98 18 54 C17.34 54 16.68 54 16 54 C16 54.99 16 55.98 16 57 C15.01 57 14.02 57 13 57 C13 57.66 13 58.32 13 59 C7.3067505 60.18609365 3.57432514 59.66251802 -2 58 C-2 57.01 -2 56.02 -2 55 C-2.66 55 -3.32 55 -4 55 C-5.86122475 51.87656536 -6.1853192 49.9616974 -5.6875 46.375 C-5.58824219 45.59898438 -5.48898438 44.82296875 -5.38671875 44.0234375 C-5 42 -5 42 -4 40 C-3.34 40 -2.68 40 -2 40 C-2 37.36 -2 34.72 -2 32 C-2.66 32 -3.32 32 -4 32 C-6.50722348 27.28052051 -5.8905023 24.10014954 -5 19 C-4.62875 17.8553125 -4.62875 17.8553125 -4.25 16.6875 C-4.1675 16.130625 -4.085 15.57375 -4 15 C-4.50660156 14.566875 -5.01320313 14.13375 -5.53515625 13.6875 C-7 12 -7 12 -6.85546875 9.73828125 C-6.63503906 8.93777344 -6.41460938 8.13726562 -6.1875 7.3125 C-5.97480469 6.50425781 -5.76210938 5.69601563 -5.54296875 4.86328125 C-5.36378906 4.24839844 -5.18460938 3.63351563 -5 3 C-3.35 2.67 -1.7 2.34 0 2 C0 1.34 0 0.68 0 0 Z " fill="#D3A590" transform="translate(24,1)"/>
<path d="M0 0 C1.32 0.33 2.64 0.66 4 1 C3.57901737 10.00031838 3.10448754 19.79102492 -1 28 C-1.66 28 -2.32 28 -3 28 C-3.33 30.31 -3.66 32.62 -4 35 C-4.66 35 -5.32 35 -6 35 C-6.66 37.31 -7.32 39.62 -8 42 C-9.32 42 -10.64 42 -12 42 C-12 42.66 -12 43.32 -12 44 C-15.63 43.67 -19.26 43.34 -23 43 C-23.33 41.68 -23.66 40.36 -24 39 C-24.66 39 -25.32 39 -26 39 C-25.67 36.69 -25.34 34.38 -25 32 C-24.01 31.67 -23.02 31.34 -22 31 C-21.525625 31.804375 -21.05125 32.60875 -20.5625 33.4375 C-19.23099846 35.84753488 -19.23099846 35.84753488 -18 37 C-15 37.16666667 -15 37.16666667 -12 37 C-11.505 36.505 -11.505 36.505 -11 36 C-11.9075 36.2475 -12.815 36.495 -13.75 36.75 C-17 37 -17 37 -19.375 35.25 C-21 33 -21 33 -21 30 C-21.165 29.38125 -21.33 28.7625 -21.5 28.125 C-22.07146859 25.69625848 -22.06906967 23.4865081 -22 21 C-22.66 21 -23.32 21 -24 21 C-23.67 21.99 -23.34 22.98 -23 24 C-23.66 24 -24.32 24 -25 24 C-25 23.01 -25 22.02 -25 21 C-25.66 21 -26.32 21 -27 21 C-26.67 20.34 -26.34 19.68 -26 19 C-26 18.01 -26 17.02 -26 16 C-25.71372955 13.32643843 -25.34968449 10.66634425 -25 8 C-17.75839472 6.69413675 -11.87873129 7.21165714 -5 10 C-4.67 10.66 -4.34 11.32 -4 12 C-1.97536745 12.65213292 -1.97536745 12.65213292 0 13 C0 12.01 0 11.02 0 10 C-0.99 10 -1.98 10 -3 10 C-3 9.01 -3 8.02 -3 7 C-2.34 7 -1.68 7 -1 7 C-0.67 4.69 -0.34 2.38 0 0 Z " fill="#FBD8CC" transform="translate(47,12)"/>
<path d="M0 0 C4.25426371 1.56279075 7.96969119 3.93938238 10.0625 8.125 C10.61394632 13.74975245 9.6142192 17.74246929 6.0625 22.125 C3.04523846 25.02786299 0.59605649 27.125 -3.6875 27.125 C-6.07540259 26.06370996 -7.3965489 25.23366993 -8.9375 23.125 C-8.9375 22.135 -8.9375 21.145 -8.9375 20.125 C-9.14375 19.465 -9.35 18.805 -9.5625 18.125 C-9.9375 16.125 -9.9375 16.125 -7.9375 13.125 C-7.07832595 10.70369133 -6.74735535 9.61620702 -7.6875 7.1875 C-7.9375 5.125 -7.9375 5.125 -5.875 2.3125 C-2.9375 0.125 -2.9375 0.125 0 0 Z " fill="#ECC1AF" transform="translate(34.9375,21.875)"/>
<path d="M0 0 C2.31 0.66 4.62 1.32 7 2 C7 2.66 7 3.32 7 4 C9.97 4.66 12.94 5.32 16 6 C15.01 9.3 14.02 12.6 13 16 C13.66 16 14.32 16 15 16 C15.33 13.69 15.66 11.38 16 9 C18.475 9.495 18.475 9.495 21 10 C20.125 15.75 20.125 15.75 19 18 C15.27726251 18.07597423 11.87033255 17.97874304 8.1875 17.375 C7.135625 17.25125 6.08375 17.1275 5 17 C4.34 17.66 3.68 18.32 3 19 C0.375 19.125 0.375 19.125 -2 19 C-2.19814261 25.08408472 -2.19814261 25.08408472 -1 31 C-2.32 30.67 -3.64 30.34 -5 30 C-5.88393553 25.75710948 -6.14206022 22.92202755 -4.875 18.75 C-4.58625 17.5125 -4.2975 16.275 -4 15 C-4.49371094 14.52433594 -4.98742187 14.04867188 -5.49609375 13.55859375 C-5.99238281 13.04425781 -6.48867188 12.52992187 -7 12 C-6.85546875 9.73828125 -6.85546875 9.73828125 -6.1875 7.3125 C-5.97480469 6.50425781 -5.76210938 5.69601563 -5.54296875 4.86328125 C-5.36378906 4.24839844 -5.18460938 3.63351563 -5 3 C-3.35 2.67 -1.7 2.34 0 2 C0 1.34 0 0.68 0 0 Z " fill="#D5AF9D" transform="translate(24,1)"/>
<path d="M0 0 C0.66 0 1.32 0 2 0 C2.144375 0.763125 2.28875 1.52625 2.4375 2.3125 C3.01288662 5.06156939 3.74259263 7.48518526 5 10 C4.34 10 3.68 10 3 10 C4.32 11.65 5.64 13.3 7 15 C11.21912747 14.5205537 13.79663178 13.83374881 17 11 C15.63016497 14.16115776 15.0109362 14.9927092 12 17 C8.26704845 17.47654701 6.65583081 17.50050246 3.625 15.1875 C2 13 2 13 2 10 C1.01 10.495 1.01 10.495 0 11 C-0.73075648 13.3140622 -1.40138258 15.64828869 -2 18 C-1.34 18 -0.68 18 0 18 C0.33 19.32 0.66 20.64 1 22 C4.63 22.33 8.26 22.66 12 23 C12 22.34 12 21.68 12 21 C12.66 21 13.32 21 14 21 C13.814375 21.61875 13.62875 22.2375 13.4375 22.875 C12.76313824 25.04160178 12.76313824 25.04160178 14 27 C8.3067505 28.18609365 4.57432514 27.66251802 -1 26 C-1 25.01 -1 24.02 -1 23 C-1.66 23 -2.32 23 -3 23 C-4.86122475 19.87656536 -5.1853192 17.9616974 -4.6875 14.375 C-4.58824219 13.59898438 -4.48898438 12.82296875 -4.38671875 12.0234375 C-4 10 -4 10 -3 8 C-2.34 8 -1.68 8 -1 8 C-0.67 5.36 -0.34 2.72 0 0 Z " fill="#F0C6B7" transform="translate(23,33)"/>
<path d="M0 0 C0 3.3 0 6.6 0 10 C2.35785318 9.10664203 2.35785318 9.10664203 3.125 5.9375 C3.41375 4.968125 3.7025 3.99875 4 3 C5.32 3.33 6.64 3.66 8 4 C7.67 6.64 7.34 9.28 7 12 C3.04 12 -0.92 12 -5 12 C-5 11.34 -5 10.68 -5 10 C-5.66 10 -6.32 10 -7 10 C-8.39431504 7.21136993 -8.25660094 5.07921132 -8 2 C-5 0 -5 0 0 0 Z " fill="#FCDACF" transform="translate(29,5)"/>
<path d="M0 0 C4.62 0.99 9.24 1.98 14 3 C13.67 3.99 13.34 4.98 13 6 C10.03 5.505 10.03 5.505 7 5 C6.67 7.31 6.34 9.62 6 12 C5.34 12 4.68 12 4 12 C4 12.99 4 13.98 4 15 C4.99 15 5.98 15 7 15 C7 15.99 7 16.98 7 18 C5.35 17.67 3.7 17.34 2 17 C2 16.34 2 15.68 2 15 C1.25234375 14.89042969 0.5046875 14.78085937 -0.265625 14.66796875 C-1.25046875 14.50941406 -2.2353125 14.35085937 -3.25 14.1875 C-4.22453125 14.03667969 -5.1990625 13.88585938 -6.203125 13.73046875 C-9.12322338 12.96781736 -10.74205815 11.96225899 -13 10 C-7.6496441 10.57021934 -2.32212148 11.20734361 3 12 C3.66 9.36 4.32 6.72 5 4 C2.525 3.505 2.525 3.505 0 3 C-0.33 5.31 -0.66 7.62 -1 10 C-1.66 10 -2.32 10 -3 10 C-2.46599103 6.08393425 -1.80330533 3.60661066 0 0 Z " fill="#CC9A83" transform="translate(40,7)"/>
<path d="M0 0 C3.92896395 0 7.19893228 1.00299863 11 2 C10.01 5.3 9.02 8.6 8 12 C8.66 12 9.32 12 10 12 C10.33 9.69 10.66 7.38 11 5 C12.65 5.33 14.3 5.66 16 6 C15.125 11.75 15.125 11.75 14 14 C6.57142857 14.28571429 6.57142857 14.28571429 3 12 C4.32 12 5.64 12 7 12 C6.979375 11.05125 6.95875 10.1025 6.9375 9.125 C7 6 7 6 8 4 C6.68 3.67 5.36 3.34 4 3 C3.34 5.31 2.68 7.62 2 10 C1.34 10 0.68 10 0 10 C0 6.7 0 3.4 0 0 Z " fill="#DFB09D" transform="translate(29,5)"/>
<path d="M0 0 C1.32 0.33 2.64 0.66 4 1 C3.57901737 10.00031838 3.10448754 19.79102492 -1 28 C-1.66 28 -2.32 28 -3 28 C-3.33 30.31 -3.66 32.62 -4 35 C-4.66 34.67 -5.32 34.34 -6 34 C-6 30.70342144 -5.25666731 28.83635572 -4 25.8125 C-3.62875 24.91144531 -3.2575 24.01039062 -2.875 23.08203125 C-2.58625 22.39496094 -2.2975 21.70789063 -2 21 C-1.34 21 -0.68 21 0 21 C-0.185625 19.741875 -0.37125 18.48375 -0.5625 17.1875 C-1.00732761 14.17255732 -0.99843846 12.99531539 0 10 C-0.99 10 -1.98 10 -3 10 C-3 9.01 -3 8.02 -3 7 C-2.34 7 -1.68 7 -1 7 C-0.67 4.69 -0.34 2.38 0 0 Z " fill="#F6C9B9" transform="translate(47,12)"/>
<path d="M0 0 C0.66 0 1.32 0 2 0 C2.144375 0.763125 2.28875 1.52625 2.4375 2.3125 C3.01288662 5.06156939 3.74259263 7.48518526 5 10 C4.34 10 3.68 10 3 10 C4.32 11.65 5.64 13.3 7 15 C11.21912747 14.5205537 13.79663178 13.83374881 17 11 C15.63016497 14.16115776 15.0109362 14.9927092 12 17 C8.26704845 17.47654701 6.65583081 17.50050246 3.625 15.1875 C2 13 2 13 2 10 C-1.24732932 11.62366466 -1.70155136 14.75387839 -3 18 C-3.33 18 -3.66 18 -4 18 C-4.125 10.25 -4.125 10.25 -3 8 C-2.34 8 -1.68 8 -1 8 C-0.67 5.36 -0.34 2.72 0 0 Z " fill="#D7AD98" transform="translate(23,33)"/>
<path d="M0 0 C0.33 0.66 0.66 1.32 1 2 C1.99 2.33 2.98 2.66 4 3 C5.35439668 5.70879335 5.06501451 8.00933268 5 11 C4.34 11 3.68 11 3 11 C2.62875 10.0925 2.2575 9.185 1.875 8.25 C-0.34663519 4.39916566 -2.05164952 3.01142383 -6 1 C-9.98567792 0.08613551 -13.91584665 0 -18 0 C-18 0.99 -18 1.98 -18 3 C-18.66 3 -19.32 3 -20 3 C-20 1.35 -20 -0.3 -20 -2 C-13.29235588 -3.88652491 -6.43222522 -2.23158834 0 0 Z " fill="#FCE2DB" transform="translate(42,22)"/>
<path d="M0 0 C2 1 2 1 2.71484375 2.671875 C3.09871059 5.80591111 2.38795488 8.21232604 1.5625 11.25 C1.27503906 12.32765625 0.98757812 13.4053125 0.69140625 14.515625 C0.46324219 15.33546875 0.23507813 16.1553125 0 17 C-0.33 15.68 -0.66 14.36 -1 13 C-1.66 13 -2.32 13 -3 13 C-2.67 9.37 -2.34 5.74 -2 2 C-1.34 2 -0.68 2 0 2 C0 1.34 0 0.68 0 0 Z " fill="#DEB4A3" transform="translate(53,11)"/>
<path d="M0 0 C1.65 0.33 3.3 0.66 5 1 C4.125 6.75 4.125 6.75 3 9 C1.35 9 -0.3 9 -2 9 C-2.33 8.34 -2.66 7.68 -3 7 C-2.34 7 -1.68 7 -1 7 C-0.67 4.69 -0.34 2.38 0 0 Z " fill="#FAD5C8" transform="translate(40,10)"/>
<path d="M0 0 C1.32 0.33 2.64 0.66 4 1 C3.67 3.64 3.34 6.28 3 9 C0.03 9 -2.94 9 -6 9 C-5.38125 8.62875 -4.7625 8.2575 -4.125 7.875 C-1.4489404 5.51377094 -0.9063156 3.39868348 0 0 Z " fill="#F8D2C5" transform="translate(33,8)"/>
<path d="M0 0 C0.33 0.99 0.66 1.98 1 3 C0.01 3.495 0.01 3.495 -1 4 C-1.72693904 5.97888961 -2.39816251 7.97954558 -3 10 C-3.66 10 -4.32 10 -5 10 C-5 10.99 -5 11.98 -5 13 C-6.65 13.33 -8.3 13.66 -10 14 C-8.25 9.125 -8.25 9.125 -6 8 C-5.27306096 6.02111039 -4.60183749 4.02045442 -4 2 C-2.68 2 -1.36 2 0 2 C0 1.34 0 0.68 0 0 Z " fill="#D3AD99" transform="translate(45,45)"/>
<path d="M0 0 C1.32 0.33 2.64 0.66 4 1 C3.125 7.875 3.125 7.875 2 9 C0.33382885 9.04063832 -1.33388095 9.042721 -3 9 C-3 8.34 -3 7.68 -3 7 C-2.34 7 -1.68 7 -1 7 C-0.67 4.69 -0.34 2.38 0 0 Z " fill="#FAD7CB" transform="translate(47,12)"/>
<path d="M0 0 C4.875 0.875 4.875 0.875 6 2 C6.04080783 3.99958364 6.04254356 6.00045254 6 8 C1.125 6.125 1.125 6.125 0 5 C-0.04063832 3.33382885 -0.042721 1.66611905 0 0 Z " fill="#FCDACE" transform="translate(33,28)"/>
<path d="M0 0 C0.66 0 1.32 0 2 0 C1.98259766 0.90492187 1.98259766 0.90492187 1.96484375 1.828125 C1.95582031 2.62734375 1.94679688 3.4265625 1.9375 4.25 C1.92589844 5.03890625 1.91429687 5.8278125 1.90234375 6.640625 C1.99614694 8.90691002 2.36758937 10.8288895 3 13 C1.68 12.67 0.36 12.34 -1 12 C-1.92470553 7.28400182 -2.22923777 4.32734391 0 0 Z " fill="#CDA08B" transform="translate(20,19)"/>
<path d="M0 0 C0.99 0.495 0.99 0.495 2 1 C2 1.66 2 2.32 2 3 C3.06541016 3.18175781 3.06541016 3.18175781 4.15234375 3.3671875 C5.07144531 3.53476562 5.99054687 3.70234375 6.9375 3.875 C7.85402344 4.03742187 8.77054688 4.19984375 9.71484375 4.3671875 C10.84599609 4.68042969 10.84599609 4.68042969 12 5 C12.33 5.66 12.66 6.32 13 7 C4.42857143 7.14285714 4.42857143 7.14285714 1 6 C0.67 4.02 0.34 2.04 0 0 Z " fill="#CE9F8A" transform="translate(21,53)"/>
<path d="M0 0 C5.56890517 0.47986031 10.67067568 1.29915181 16 3 C16 3.66 16 4.32 16 5 C10.13190493 4.47606294 5.45126259 3.23891142 0 1 C0 0.67 0 0.34 0 0 Z " fill="#CD9681" transform="translate(27,17)"/>
<path d="M0 0 C1.31471568 0.28151087 2.62675767 0.57553339 3.9375 0.875 C4.66839844 1.03742187 5.39929687 1.19984375 6.15234375 1.3671875 C8 2 8 2 9 4 C9.039992 5.99960012 9.04346799 8.00047242 9 10 C8.34 10 7.68 10 7 10 C6.38125 8.63875 6.38125 8.63875 5.75 7.25 C4.10949282 4.20334382 2.55281639 2.28873194 0 0 Z " fill="#FDDACF" transform="translate(38,23)"/>
<path d="M0 0 C2.97 0.495 2.97 0.495 6 1 C6 1.99 6 2.98 6 4 C3.03 3.505 3.03 3.505 0 3 C-0.33 5.31 -0.66 7.62 -1 10 C-1.66 10 -2.32 10 -3 10 C-2.49287967 6.28111761 -1.88391785 3.26545761 0 0 Z " fill="#C7927B" transform="translate(40,7)"/>
<path d="M0 0 C-0.33 3.3 -0.66 6.6 -1 10 C-1.66 10 -2.32 10 -3 10 C-3.79953138 6.71303767 -4.09658936 5.28976808 -3 2 C-3.99 1.67 -4.98 1.34 -6 1 C-1.125 0 -1.125 0 0 0 Z " fill="#FDCFC0" transform="translate(50,20)"/>
<path d="M0 0 C3.375 -0.125 3.375 -0.125 7 0 C7.66 0.66 8.32 1.32 9 2 C7 4 7 4 4.375 4.125 C3.59125 4.08375 2.8075 4.0425 2 4 C1.34 2.68 0.68 1.36 0 0 Z " fill="#FDDACF" transform="translate(27,40)"/>
<path d="M0 0 C0.99 0 1.98 0 3 0 C5.1875 2.5 5.1875 2.5 7 5 C4.36 5.66 1.72 6.32 -1 7 C-0.67 4.69 -0.34 2.38 0 0 Z " fill="#FACCBD" transform="translate(26,35)"/>
<path d="M0 0 C2 2 4 4 6 6 C5.67 6.99 5.34 7.98 5 9 C4.67 8.34 4.34 7.68 4 7 C3.34 7.66 2.68 8.32 2 9 C0.14223235 5.86501708 -0.20140476 3.62528568 0 0 Z " fill="#E2C0B1" transform="translate(18,47)"/>
<path d="M0 0 C0.33 0 0.66 0 1 0 C1 1.65 1 3.3 1 5 C1.99 5 2.98 5 4 5 C4 5.99 4 6.98 4 8 C2.35 7.67 0.7 7.34 -1 7 C-0.67 5.68 -0.34 4.36 0 3 C-0.99 2.67 -1.98 2.34 -3 2 C-2.01 2 -1.02 2 0 2 C0 1.34 0 0.68 0 0 Z " fill="#E4B5A1" transform="translate(43,17)"/>
<path d="M0 0 C0.33 0.66 0.66 1.32 1 2 C3.52733235 2.65555119 3.52733235 2.65555119 6 3 C5.34 3.66 4.68 4.32 4 5 C0.375 4.625 0.375 4.625 -3 4 C-2.67 3.34 -2.34 2.68 -2 2 C-1.34 2 -0.68 2 0 2 C0 1.34 0 0.68 0 0 Z " fill="#DBB19E" transform="translate(23,15)"/>
<path d="M0 0 C0.36923077 5.53846154 0.36923077 5.53846154 -1.5 7.875 C-2.2425 8.431875 -2.2425 8.431875 -3 9 C-3 6.36 -3 3.72 -3 1 C-1 0 -1 0 0 0 Z " fill="#CEA08B" transform="translate(22,42)"/>
<path d="M0 0 C0.66 0 1.32 0 2 0 C2.84454356 3.37817425 3.10844919 5.67465243 2 9 C1.34 9 0.68 9 0 9 C0 6.03 0 3.06 0 0 Z " fill="#CC9A84" transform="translate(23,33)"/>
</svg>
